<svg xmlns="http://www.w3.org/2000/svg" version="1.1" xmlns:xlink="http://www.w3.org/1999/xlink" xmlns:svgjs="http://svgjs.dev/svgjs" width="1000" height="411" viewBox="0 0 1000 411"><g transform="matrix(1,0,0,1,-0.21306726448307245,-0.1105255863741661)"><svg viewBox="0 0 153 63" data-background-color="#e6b17e" preserveAspectRatio="xMidYMid meet" height="411" width="1000" xmlns="http://www.w3.org/2000/svg" xmlns:xlink="http://www.w3.org/1999/xlink"><g id="tight-bounds" transform="matrix(1,0,0,1,0.0325992991820101,0.016943359375005684)"><svg viewBox="0 0 152.93480140935213 62.966113281249996" height="62.966113281249996" width="152.93480140935213"><g><svg viewBox="0 0 152.93480140935213 62.966113281249996" height="62.966113281249996" width="152.93480140935213"><g><svg viewBox="0 0 152.93480140935213 62.966113281249996" height="62.966113281249996" width="152.93480140935213"><g id="textblocktransform"><svg viewBox="0 0 152.93480140935213 62.966113281249996" height="62.966113281249996" width="152.93480140935213" id="textblock"><g><svg viewBox="0 0 152.93480140935213 62.966113281249996" height="62.966113281249996" width="152.93480140935213"><g><svg><g></g><g></g></svg></g><g><svg><g><svg></svg></g><g></g></svg></g><g id="text-0"><svg viewBox="0 0 152.93480140935213 62.966113281249996" height="62.966113281249996" width="152.93480140935213"><g transform="matrix(1,0,0,1,0,0)"><svg width="75.488232421875" viewBox="-0.6299999952316284 -30.959999084472656 46.650001525878906 38.91999816894531" height="62.966113281249996" data-palette-color="#551e19"><path d="M-0.63 0L10.79 0 11.06-1.95 6.52-3.03 8.98-10.55 19.21-10.55 21.88-3.15 17.7-1.81 17.41 0 29.98 0 30.2-1.95 26.86-3.03 17.33-30.96 13.65-30.2 3.22-3.15-0.42-1.81-0.63 0ZM9.91-13.04L14.45-25.24 18.51-13.04 9.91-13.04ZM32.42 7.96Q36.2 5.49 38.08 3.47 39.96 1.44 40.78-1.48 41.6-4.39 41.62-9.4L41.62-9.4 41.62-27.59 45.77-28.52 46.02-30.37 32.71-30.37 32.47-28.52 36.89-27.49 36.89-4.81Q36.89-1.98 35.48 0.5 34.08 2.98 31.1 5.79L31.1 5.79 32.42 7.96Z" opacity="1" transform="matrix(1,0,0,1,0,0)" fill="#551e19" class="wordmark-text-0" data-fill-palette-color="primary"></path></svg></g><g><svg xmlns="http://www.w3.org/2000/svg" xmlns:xlink="http://www.w3.org/1999/xlink" version="1.1" x="90.354150390625" y="0" viewBox="5.274999618530273 5 89.44904327392578 90" enable-background="new 0 0 100 100" xml:space="preserve" height="62.966113281249996" width="62.58065101872715" class="icon-s-0" data-fill-palette-color="accent" id="s-0"><g fill="#c56e33" data-fill-palette-color="accent"><path d="M34.909 35.183c-16.34 0-29.634 13.294-29.634 29.634 0 16.341 13.294 29.634 29.634 29.634s29.634-13.293 29.634-29.634C64.543 48.477 51.249 35.183 34.909 35.183zM34.909 77.531c-7.011 0-12.715-5.703-12.715-12.714 0-7.013 5.704-12.717 12.715-12.717 7.012 0 12.717 5.704 12.717 12.717C47.625 71.828 41.92 77.531 34.909 77.531z" fill="#c56e33" data-fill-palette-color="accent"></path><circle cx="34.909" cy="64.816" r="6.5" fill="#c56e33" data-fill-palette-color="accent"></circle></g><g fill="#c56e33" data-fill-palette-color="accent"><path fill="#c56e33" d="M63.665 36.853c-1.338-1.378-3.114-2.136-5-2.136-3.007 0-5.599 1.839-6.614 4.605 3.53 2.382 6.536 5.481 8.819 9.082 2.221-0.742 3.904-2.497 4.535-4.795C66.073 41.185 65.423 38.66 63.665 36.853z" data-fill-palette-color="accent"></path><path fill="#c56e33" d="M94.177 5H46.763C33.389 5 22.507 15.881 22.507 29.256v7.452c3.796-1.681 7.99-2.623 12.401-2.623 1.961 0 3.877 0.192 5.737 0.545l-1.191-1.043c-0.146-0.127-0.183-0.339-0.089-0.508 0.851-1.542 1.828-3.007 2.902-4.354 1.068-1.341 2.281-2.619 3.602-3.8 0.145-0.128 0.359-0.14 0.516-0.025l3.658 2.657c0.909-0.546 1.834-0.992 2.812-1.353l0.205-4.516c0.008-0.193 0.149-0.354 0.341-0.387 3.445-0.597 6.985-0.597 10.431 0 0.19 0.033 0.332 0.194 0.341 0.387l0.205 4.516c0.979 0.361 1.902 0.807 2.812 1.353l3.658-2.657c0.156-0.113 0.37-0.103 0.516 0.025 1.321 1.181 2.532 2.459 3.602 3.8 1.068 1.337 2.043 2.802 2.902 4.353 0.093 0.169 0.057 0.382-0.09 0.509l-3.404 2.981c0.33 0.998 0.558 1.998 0.694 3.04l4.359 1.207c0.187 0.051 0.311 0.226 0.3 0.419-0.099 1.758-0.341 3.501-0.723 5.181-0.385 1.683-0.922 3.359-1.597 4.985-0.075 0.179-0.262 0.279-0.455 0.247l-4.45-0.805c-0.574 0.881-1.213 1.683-1.945 2.438l1.776 4.159c0.076 0.179 0.017 0.385-0.14 0.497-1.432 1.018-2.946 1.916-4.504 2.666-0.674 0.324-1.418 0.636-2.226 0.946 0.114 1.074 0.176 2.164 0.176 3.269 0 14.978-10.772 27.479-24.975 30.183h53.511c0.304 0 0.549-0.245 0.549-0.549V5.549C94.726 5.246 94.48 5 94.177 5z" data-fill-palette-color="accent"></path></g></svg></g></svg></g></svg></g></svg></g></svg></g></svg></g><defs></defs></svg><rect width="152.93480140935213" height="62.966113281249996" fill="none" stroke="none" visibility="hidden"></rect></g></svg></g></svg>